<svg width="43" height="33" viewBox="0 0 43 33" fill="none" xmlns="http://www.w3.org/2000/svg">
<path d="M36.0782 3.20262C36.0665 3.18 36.0472 3.16228 36.0236 3.15262C33.3005 1.90323 30.4269 1.01232 27.4746 0.502185C27.4478 0.497199 27.4201 0.500796 27.3954 0.512466C27.3707 0.524135 27.3504 0.543283 27.3372 0.567185C26.9459 1.27739 26.5907 2.0069 26.273 2.75291C23.0906 2.26982 19.8535 2.26982 16.6711 2.75291C16.3512 2.005 15.9903 1.27532 15.59 0.567185C15.5763 0.543802 15.5558 0.525096 15.5313 0.513502C15.5068 0.501908 15.4794 0.497965 15.4526 0.502185C12.5 1.01125 9.62614 1.90223 6.9034 3.15269C6.88009 3.16257 6.86043 3.17945 6.84712 3.20098C1.40217 11.3323 -0.0894044 19.2637 0.642312 27.0968C0.64437 27.116 0.650269 27.1346 0.659656 27.1515C0.669043 27.1684 0.681728 27.1832 0.696955 27.195C3.8675 29.5426 7.41378 31.3345 11.1845 32.4943C11.211 32.5022 11.2394 32.5019 11.2657 32.4933C11.2921 32.4846 11.3152 32.4681 11.3318 32.446C12.1417 31.344 12.8593 30.1772 13.4773 28.9573C13.4858 28.9405 13.4907 28.9222 13.4916 28.9034C13.4925 28.8847 13.4894 28.866 13.4825 28.8485C13.4756 28.831 13.4651 28.8152 13.4517 28.8021C13.4382 28.789 13.4222 28.7789 13.4046 28.7724C12.273 28.3394 11.1774 27.8175 10.1283 27.2115C10.1092 27.2003 10.0932 27.1845 10.0817 27.1657C10.0701 27.1468 10.0634 27.1254 10.0621 27.1034C10.0608 27.0813 10.0649 27.0592 10.0742 27.0392C10.0834 27.0191 10.0975 27.0016 10.1151 26.9882C10.3352 26.8233 10.5555 26.6517 10.7657 26.4784C10.7844 26.463 10.807 26.4532 10.831 26.4499C10.8549 26.4467 10.8793 26.4502 10.9014 26.4601C17.7749 29.5971 25.2165 29.5971 32.0086 26.4601C32.0307 26.4496 32.0554 26.4456 32.0797 26.4485C32.1041 26.4515 32.1271 26.4613 32.146 26.4768C32.3563 26.65 32.5765 26.8233 32.7983 26.9882C32.816 27.0014 32.8302 27.0188 32.8396 27.0388C32.849 27.0588 32.8533 27.0809 32.8521 27.1029C32.851 27.125 32.8444 27.1464 32.833 27.1654C32.8216 27.1843 32.8057 27.2001 32.7868 27.2115C31.74 27.8226 30.6435 28.3442 29.5089 28.7708C29.4913 28.7775 29.4753 28.7878 29.4619 28.8011C29.4486 28.8144 29.4382 28.8304 29.4315 28.848C29.4247 28.8656 29.4218 28.8845 29.4228 28.9033C29.4238 28.9221 29.4288 28.9405 29.4375 28.9573C30.0659 30.1704 30.7824 31.3358 31.5813 32.4441C31.5975 32.4668 31.6205 32.4839 31.6469 32.4928C31.6734 32.5018 31.702 32.5022 31.7287 32.4941C35.5061 31.3382 39.0586 29.5461 42.2331 27.195C42.2486 27.1838 42.2615 27.1693 42.2709 27.1527C42.2803 27.136 42.2861 27.1175 42.2878 27.0985C43.1638 18.0425 40.8212 10.1761 36.0782 3.20262ZM14.5039 22.3272C12.4344 22.3272 10.7293 20.4282 10.7293 18.0959C10.7293 15.7636 12.4013 13.8644 14.5039 13.8644C16.6228 13.8644 18.3114 15.7801 18.2784 18.0957C18.2784 20.4282 16.6062 22.3272 14.5039 22.3272ZM28.4596 22.3272C26.3902 22.3272 24.6851 20.4282 24.6851 18.0959C24.6851 15.7636 26.3572 13.8644 28.4596 13.8644C30.5787 13.8644 32.2673 15.7801 32.2342 18.0957C32.2342 20.4282 30.5787 22.3272 28.4596 22.3272Z" fill="#EDEDF4"/>
</svg>
