<svg width="31" height="32" viewBox="0 0 31 32" fill="none" xmlns="http://www.w3.org/2000/svg">
<path d="M15.25 16C17.5233 16 19.7035 15.1571 21.3109 13.6569C22.9184 12.1566 23.8214 10.1217 23.8214 8C23.8214 5.87827 22.9184 3.84344 21.3109 2.34315C19.7035 0.842855 17.5233 0 15.25 0C12.9767 0 10.7965 0.842855 9.18908 2.34315C7.58163 3.84344 6.67857 5.87827 6.67857 8C6.67857 10.1217 7.58163 12.1566 9.18908 13.6569C10.7965 15.1571 12.9767 16 15.25 16ZM12.1897 19C5.59375 19 0.25 23.9875 0.25 30.1437C0.25 31.1687 1.14063 32 2.23884 32H28.2612C29.3594 32 30.25 31.1687 30.25 30.1437C30.25 23.9875 24.9062 19 18.3103 19H12.1897Z" fill="#EDEDF4"/>
</svg>
