<svg width="32" height="33" viewBox="0 0 32 33" fill="none" xmlns="http://www.w3.org/2000/svg">
<path d="M13.44 2.42001C7.4375 2.42001 2.56 7.29751 2.56 13.3C2.56 19.3025 7.4375 24.18 13.44 24.18C15.815 24.18 18.01 23.415 19.8 22.12L28.22 30.52L30.02 28.72L21.7 20.38C23.335 18.475 24.32 16.0025 24.32 13.3C24.32 7.29751 19.4425 2.42001 13.44 2.42001ZM13.44 3.70001C18.75 3.70001 23.04 7.99001 23.04 13.3C23.04 18.61 18.75 22.9 13.44 22.9C8.13 22.9 3.84 18.61 3.84 13.3C3.84 7.99001 8.13 3.70001 13.44 3.70001Z" fill="black"/>
</svg>
