<svg width="48" height="49" viewBox="0 0 48 49" fill="none" xmlns="http://www.w3.org/2000/svg">
<g clip-path="url(#clip0_33_35)">
<path d="M44.465 24.425C44.468 35.771 35.525 44.972 24.489 44.975C13.453 44.979 4.503 35.783 4.5 24.437V24.424C4.497 13.077 13.44 3.87599 24.476 3.87299C35.512 3.86999 44.461 13.064 44.465 24.411V24.425Z" fill="url(#paint0_linear_33_35)"/>
<path d="M26.438 4.15699L18.438 4.65699C18.2609 4.66618 18.0889 4.71983 17.938 4.81299L10.938 9.31299C10.787 9.40612 10.6619 9.5357 10.5741 9.68983C10.4864 9.84396 10.4387 10.0177 10.4356 10.195C10.4326 10.3724 10.4741 10.5476 10.5565 10.7047C10.6388 10.8618 10.7594 10.9957 10.907 11.094C11.83 11.716 12.744 12.432 13.001 13.094C13.554 14.56 14.182 16.708 14.72 18.563C14.9558 19.3902 15.2058 20.2134 15.47 21.032C15.583 21.374 15.676 21.68 15.782 21.938C15.888 22.196 15.955 22.392 16.22 22.688C16.26 22.722 16.301 22.753 16.345 22.782C16.818 23.167 17.311 23.378 17.907 23.563C18.503 23.748 19.191 23.894 19.845 24.001C20.499 24.108 21.126 24.147 21.689 24.157C22.252 24.167 22.649 24.29 23.314 23.876C23.346 23.857 23.378 23.836 23.408 23.814C23.693 23.587 23.722 23.435 23.783 23.314C23.844 23.193 23.896 23.092 23.939 22.97C24.026 22.726 24.105 22.452 24.189 22.126C24.5876 20.5553 24.8697 18.9573 25.033 17.345C25.105 16.637 25.191 16.168 25.033 15.533C25.025 15.5 25.043 15.473 25.033 15.439H25C24.84 14.666 24.43 13.547 23.719 12.283C23.085 11.1593 22.2354 10.1718 21.219 9.37699C21.255 9.33899 21.336 9.27099 21.531 9.18899L25.438 9.21899C25.555 9.21799 25.671 9.19599 25.782 9.15699C25.874 9.12699 25.971 9.19099 26.438 8.96899C26.672 8.85899 26.958 8.60499 27.094 8.34399C27.23 8.08299 27.287 7.86199 27.313 7.62499L27.563 5.34399C27.5821 5.18887 27.5666 5.03145 27.5178 4.883C27.4689 4.73455 27.3878 4.59874 27.2803 4.48531C27.1728 4.37187 27.0415 4.28361 26.8959 4.22686C26.7503 4.1701 26.5939 4.14624 26.438 4.15699Z" fill="url(#paint1_linear_33_35)"/>
<path d="M26.5 5.21899L26.25 7.49699C26.18 8.14499 25.907 7.98699 25.427 8.14299L21.311 8.12799C20.097 8.51799 19.964 9.164 20.046 9.716C22.352 10.998 23.792 14.637 24.001 15.718C24.297 16.76 23.156 22.645 22.751 22.968C22.068 23.393 18.021 22.798 17.001 21.968C16.453 21.353 15.164 15.801 14.001 12.718C13.573 11.615 12.425 10.84 11.501 10.218L18.501 5.71799L26.5 5.21899Z" fill="url(#paint2_radial_33_35)"/>
<path d="M6.531 16.813C6.34152 16.8308 6.16206 16.9063 6.01686 17.0294C5.87165 17.1524 5.76769 17.317 5.719 17.501L3.313 25.72C3.25781 25.9094 3.26441 26.1114 3.33184 26.2968C3.39927 26.4822 3.52403 26.6413 3.688 26.751C4.611 27.372 5.566 28.097 5.844 28.813C5.86989 28.8681 5.90139 28.9204 5.938 28.969C5.946 28.996 5.957 29.008 5.969 29.063C6.012 29.249 6.062 29.572 6.125 29.938C6.252 30.67 6.427 31.663 6.656 32.688C6.885 33.713 7.167 34.772 7.594 35.688C8.021 36.604 8.592 37.452 9.594 37.782C9.351 37.702 9.553 37.792 9.688 37.876C9.823 37.96 10 38.075 10.219 38.22C10.657 38.51 11.217 38.874 11.781 39.251C12.345 39.628 12.912 40.028 13.375 40.313C13.606 40.456 13.816 40.561 14 40.657C14.092 40.705 14.175 40.742 14.281 40.782C14.387 40.822 14.449 40.921 14.875 40.844C15.365 40.756 15.516 40.483 15.594 40.344C15.672 40.205 15.689 40.1 15.719 40C15.778 39.801 15.839 39.602 15.875 39.375C15.948 38.92 16.001 38.359 16.063 37.813C16.125 37.267 16.188 36.714 16.251 36.344C16.277 36.192 16.297 36.125 16.313 36.063C16.382 36.004 16.48 36.012 16.532 35.938C16.736 35.651 16.759 35.353 16.751 35.126C16.734 34.671 16.589 34.323 16.407 33.938C16.043 33.167 15.447 32.28 14.782 31.344C13.499 29.537 12.032 27.758 11.376 27.032C11.321 26.852 11.29 26.667 11.22 26.47C11.133 26.224 11.035 25.956 10.97 25.72C12.353 26.31 13.786 26.842 15.376 27.032C15.4707 27.0363 15.5655 27.0258 15.657 27.001C16.1532 26.9177 16.6366 26.7705 17.095 26.563C17.365 26.441 17.651 26.316 17.907 26.094C18.163 25.872 18.448 25.516 18.501 25.032C18.5251 24.8117 18.4698 24.5901 18.345 24.407C16.568 21.751 14.014 21.072 11.345 20.095L9.812 18.219C9.71823 18.1102 9.60047 18.0246 9.468 17.969L6.999 16.907C6.85411 16.8347 6.69258 16.8022 6.531 16.813Z" fill="url(#paint3_linear_33_35)"/>
<path d="M10.775 20.881C13.595 21.933 15.908 22.469 17.554 24.929C17.484 25.576 16.068 26.012 15.493 26.106C13.785 25.901 12.213 25.288 10.67 24.588C9.14399 24.259 10.472 26.951 10.554 27.503C11.644 28.689 17.05 35.317 15.566 35.497C15.202 35.542 15.045 39.892 14.706 39.952C14.367 40.012 10.244 37.014 9.87399 36.893C7.49699 36.11 7.10699 28.694 6.71899 28.472C6.29199 27.369 5.14299 26.594 4.21899 25.972L6.62299 17.76L9.10499 18.821L10.775 20.881Z" fill="url(#paint4_radial_33_35)"/>
<path d="M44.333 13.645L44.302 6.70698C44.304 6.54227 44.2731 6.37882 44.211 6.22625C44.1489 6.07369 44.0569 5.93509 43.9404 5.81861C43.8239 5.70213 43.6853 5.61013 43.5328 5.54803C43.3802 5.48592 43.2167 5.45496 43.052 5.45698L36.708 5.39498C36.4649 5.39361 36.2267 5.46375 36.0232 5.59667C35.8196 5.72959 35.6596 5.91942 35.563 6.14257C35.4665 6.36571 35.4377 6.61231 35.4801 6.8517C35.5226 7.09109 35.6346 7.3127 35.802 7.48898L42.177 14.489C42.522 14.87 43.067 14.998 43.547 14.811C43.7807 14.7191 43.9809 14.5584 44.1213 14.3502C44.2616 14.142 44.3355 13.8961 44.333 13.645Z" fill="white" fill-opacity="0.32"/>
<path d="M43.916 13.646L43.885 6.70799C43.8821 6.49352 43.7957 6.28864 43.644 6.13697C43.4924 5.9853 43.2875 5.89884 43.073 5.89599L36.729 5.83399C36.5694 5.83333 36.4131 5.87879 36.2788 5.9649C36.1444 6.05101 36.0378 6.1741 35.9718 6.31936C35.9058 6.46462 35.8831 6.62586 35.9066 6.78369C35.93 6.94152 35.9986 7.08921 36.104 7.20899L42.479 14.209C42.5918 14.3322 42.7393 14.4184 42.902 14.4562C43.0648 14.4939 43.2351 14.4815 43.3907 14.4206C43.5462 14.3597 43.6797 14.253 43.7735 14.1148C43.8672 13.9765 43.9169 13.8131 43.916 13.646Z" fill="white" fill-opacity="0.32"/>
<path d="M43.6461 13.645L43.6151 6.70699C43.6163 6.63279 43.6027 6.5591 43.575 6.49024C43.5474 6.42138 43.5062 6.35873 43.4541 6.30599C43.4013 6.25375 43.3387 6.21253 43.2698 6.18471C43.201 6.1569 43.1273 6.14306 43.0531 6.14399L36.7091 6.08199C36.6002 6.08112 36.4934 6.11232 36.4021 6.17169C36.3108 6.23105 36.239 6.31597 36.1956 6.41586C36.1522 6.51574 36.1392 6.62619 36.1581 6.73343C36.177 6.84068 36.2271 6.93999 36.3021 7.01899L42.6771 14.019C42.7519 14.1037 42.851 14.1635 42.9608 14.1903C43.0707 14.2171 43.1861 14.2096 43.2916 14.1689C43.3971 14.1282 43.4876 14.0561 43.5509 13.9625C43.6143 13.8688 43.6475 13.7581 43.6461 13.645Z" fill="white" fill-opacity="0.32"/>
<path d="M43.34 13.65L43.309 6.71202C43.3048 6.67899 43.2942 6.64708 43.278 6.61802C43.2642 6.58268 43.243 6.55065 43.216 6.52402C43.2064 6.51295 43.1961 6.50259 43.185 6.49302C43.1467 6.47216 43.1036 6.46149 43.06 6.46202C43.0504 6.45095 43.0401 6.44059 43.029 6.43102L36.685 6.36902C36.663 6.3765 36.6422 6.38693 36.623 6.40002C36.59 6.4044 36.5581 6.41492 36.529 6.43102C36.5052 6.4483 36.4843 6.46922 36.467 6.49302C36.4512 6.52227 36.4407 6.5541 36.436 6.58702C36.42 6.63779 36.42 6.69224 36.436 6.74302C36.4501 6.77823 36.4712 6.81021 36.498 6.83702L42.873 13.837C42.9028 13.8627 42.9378 13.8815 42.9756 13.8922C43.0135 13.9029 43.0532 13.9053 43.092 13.899C43.1356 13.8991 43.1785 13.8884 43.217 13.868C43.229 13.858 43.238 13.848 43.248 13.837C43.2753 13.8107 43.2965 13.7786 43.31 13.743C43.3253 13.714 43.3355 13.6825 43.34 13.65Z" fill="black" fill-opacity="0.33"/>
<path d="M37.086 6.755L43.014 6.729L42.957 13.098L37.086 6.755Z" fill="url(#paint5_linear_33_35)"/>
<path d="M37.125 43.094L44.063 43.063C44.2277 43.0649 44.3911 43.0338 44.5436 42.9717C44.6961 42.9095 44.8346 42.8175 44.9511 42.7011C45.0675 42.5846 45.1595 42.4461 45.2217 42.2936C45.2838 42.1411 45.3149 41.9777 45.313 41.813L45.375 35.469C45.3773 35.2255 45.3077 34.9867 45.175 34.7825C45.0422 34.5783 44.8522 34.4178 44.6287 34.3211C44.4051 34.2244 44.1581 34.1958 43.9183 34.2388C43.6786 34.2818 43.4569 34.3946 43.281 34.563L36.281 40.938C36.0947 41.1066 35.964 41.3279 35.9065 41.5725C35.8489 41.8171 35.8671 42.0734 35.9587 42.3074C36.0503 42.5414 36.2109 42.7419 36.4193 42.8824C36.6276 43.023 36.8737 43.0967 37.125 43.094Z" fill="white" fill-opacity="0.32"/>
<path d="M37.146 42.678L44.084 42.647C44.2984 42.6439 44.5031 42.5574 44.6547 42.4057C44.8064 42.2541 44.8929 42.0494 44.896 41.835L44.958 35.491C44.9591 35.3313 44.9139 35.1746 44.8279 35.04C44.7418 34.9054 44.6187 34.7986 44.4732 34.7325C44.3278 34.6664 44.1663 34.6438 44.0084 34.6675C43.8504 34.6912 43.7026 34.7601 43.583 34.866L36.583 41.241C36.4592 41.3536 36.3726 41.5011 36.3345 41.664C36.2964 41.8269 36.3087 41.9976 36.3697 42.1533C36.4308 42.3091 36.5377 42.4427 36.6763 42.5364C36.8149 42.6301 36.9787 42.6795 37.146 42.678Z" fill="white" fill-opacity="0.32"/>
<path d="M37.125 42.407L44.063 42.376C44.137 42.3767 44.2103 42.3626 44.2788 42.3346C44.3473 42.3066 44.4095 42.2652 44.4619 42.2129C44.5142 42.1606 44.5556 42.0983 44.5836 42.0299C44.6116 41.9614 44.6256 41.888 44.625 41.814L44.687 35.47C44.6898 35.3603 44.6597 35.2522 44.6007 35.1597C44.5417 35.0672 44.4563 34.9944 44.3557 34.9506C44.255 34.9069 44.1436 34.8943 44.0357 34.9143C43.9277 34.9343 43.8283 34.9861 43.75 35.063L36.75 41.438C36.6607 41.4393 36.573 41.4622 36.4944 41.5047C36.4159 41.5472 36.3487 41.6081 36.2988 41.6821C36.2488 41.7562 36.2175 41.8412 36.2075 41.93C36.1975 42.0187 36.2091 42.1086 36.2414 42.1919C36.2736 42.2752 36.3255 42.3495 36.3927 42.4084C36.4598 42.4673 36.5402 42.5091 36.627 42.5302C36.7138 42.5514 36.8044 42.5512 36.8911 42.5297C36.9778 42.5083 37.0581 42.4662 37.125 42.407Z" fill="white" fill-opacity="0.32"/>
<path d="M37.097 42.106L44.035 42.075C44.068 42.0706 44.0999 42.0601 44.129 42.044C44.1644 42.0302 44.1964 42.0091 44.223 41.982C44.2341 41.9724 44.2445 41.9621 44.254 41.951C44.2748 41.9126 44.2855 41.8696 44.285 41.826C44.2961 41.8164 44.3065 41.8061 44.316 41.795L44.378 35.451C44.3701 35.4292 44.3597 35.4084 44.347 35.389C44.3422 35.3561 44.3317 35.3243 44.316 35.295C44.2987 35.2712 44.2778 35.2503 44.254 35.233C44.2248 35.2172 44.1929 35.2067 44.16 35.202C44.1092 35.186 44.0548 35.186 44.004 35.202C43.9687 35.2158 43.9366 35.237 43.91 35.264L36.91 41.639C36.8844 41.6688 36.8655 41.7038 36.8548 41.7417C36.8441 41.7795 36.8418 41.8192 36.848 41.858C36.848 41.902 36.859 41.945 36.879 41.983C36.888 41.995 36.9 42.004 36.91 42.014C36.9362 42.0416 36.9684 42.0628 37.004 42.076C37.0328 42.0918 37.0644 42.102 37.097 42.106Z" fill="black" fill-opacity="0.33"/>
<path d="M43.996 34.643L44.017 41.737H37.21L43.996 34.643Z" fill="url(#paint6_linear_33_35)"/>
<path d="M2.62503 34.844L2.65603 41.782C2.65442 41.9466 2.68566 42.1099 2.74791 42.2623C2.81016 42.4146 2.90218 42.5531 3.01857 42.6695C3.13496 42.7859 3.2734 42.8779 3.42578 42.9401C3.57816 43.0024 3.74143 43.0336 3.90603 43.032L10.25 43.094C10.748 43.099 11.199 42.805 11.397 42.348C11.4937 42.1245 11.5223 41.8774 11.4795 41.6377C11.4366 41.398 11.3241 41.1762 11.156 41L4.78103 34C4.612 33.8147 4.39076 33.6851 4.14652 33.6281C3.90228 33.5712 3.64652 33.5897 3.41298 33.6811C3.17945 33.7725 2.97913 33.9326 2.83845 34.1402C2.69778 34.3478 2.62336 34.5932 2.62503 34.844Z" fill="white" fill-opacity="0.32"/>
<path d="M3.06204 34.865L3.09304 41.803C3.09615 42.0176 3.18283 42.2224 3.33466 42.3741C3.48649 42.5257 3.69148 42.6122 3.90604 42.615L10.25 42.677C10.4104 42.6794 10.5679 42.635 10.7033 42.5492C10.8388 42.4634 10.9462 42.34 11.0126 42.1941C11.0789 42.0481 11.1013 41.886 11.0768 41.7275C11.0524 41.5691 10.9823 41.4212 10.875 41.302L4.50004 34.302C4.38745 34.178 4.23992 34.0911 4.07692 34.0527C3.91393 34.0144 3.74312 34.0263 3.58704 34.087C3.43109 34.1483 3.2974 34.2555 3.20366 34.3944C3.10993 34.5333 3.06054 34.6974 3.06204 34.865Z" fill="white" fill-opacity="0.32"/>
<path d="M3.31305 34.844L3.34405 41.782C3.34263 41.8562 3.35625 41.9299 3.3841 41.9986C3.41194 42.0674 3.45342 42.1297 3.50605 42.182C3.61205 42.289 3.75605 42.347 3.90705 42.344L10.251 42.406C10.3607 42.4086 10.4686 42.3784 10.561 42.3193C10.6533 42.2602 10.726 42.1749 10.7696 42.0742C10.8132 41.9736 10.8258 41.8623 10.8057 41.7544C10.7857 41.6466 10.7339 41.5472 10.657 41.469L4.28205 34.469C4.2071 34.3842 4.10798 34.3244 3.99803 34.2977C3.88808 34.2709 3.77258 34.2785 3.66704 34.3193C3.56151 34.3601 3.47101 34.4323 3.40773 34.5261C3.34444 34.6199 3.3114 34.7309 3.31305 34.844Z" fill="white" fill-opacity="0.32"/>
<path d="M3.58899 34.821L3.61999 41.759C3.62437 41.792 3.63489 41.8239 3.65099 41.853C3.66508 41.8882 3.68617 41.9202 3.71299 41.947C3.72199 41.959 3.73299 41.968 3.74399 41.978C3.78235 41.9988 3.82537 42.0094 3.86899 42.009C3.87799 42.021 3.88899 42.03 3.89999 42.04L10.244 42.102C10.2659 42.0943 10.2867 42.0839 10.306 42.071C10.3389 42.0661 10.3707 42.0557 10.4 42.04C10.4238 42.0227 10.4447 42.0018 10.462 41.978C10.4778 41.9487 10.4883 41.9169 10.493 41.884C10.509 41.8332 10.509 41.7788 10.493 41.728C10.4787 41.6929 10.4576 41.661 10.431 41.634L4.05599 34.634C4.02638 34.608 3.99137 34.589 3.95348 34.5783C3.9156 34.5676 3.87581 34.5654 3.83699 34.572C3.79343 34.5721 3.75053 34.5827 3.71199 34.603C3.70068 34.6123 3.6903 34.6227 3.68099 34.634C3.65385 34.6605 3.63271 34.6926 3.61899 34.728C3.6032 34.7568 3.59302 34.7884 3.58899 34.821Z" fill="black" fill-opacity="0.33"/>
<path d="M10.408 41.714H4V34.732L10.408 41.714Z" fill="url(#paint7_linear_33_35)"/>
<path d="M11.938 5.46898L4.99998 5.49998C4.83538 5.49837 4.67212 5.52961 4.51974 5.59186C4.36736 5.65411 4.22892 5.74613 4.11253 5.86252C3.99613 5.97891 3.90412 6.11735 3.84187 6.26973C3.77962 6.42211 3.74838 6.58538 3.74998 6.74998L3.68798 13.094C3.68569 13.3375 3.75527 13.5763 3.88802 13.7805C4.02078 13.9847 4.21081 14.1452 4.43433 14.2419C4.65785 14.3386 4.90493 14.3672 5.14464 14.3242C5.38435 14.2812 5.60605 14.1684 5.78198 14L12.782 7.62498C12.9689 7.45664 13.1 7.23532 13.1579 6.99055C13.2158 6.74577 13.1977 6.48917 13.106 6.25495C13.0143 6.02073 12.8534 5.82003 12.6447 5.6796C12.436 5.53918 12.1895 5.4657 11.938 5.46898Z" fill="white" fill-opacity="0.32"/>
<path d="M11.938 5.90701L4.99999 5.93801C4.7856 5.94111 4.58086 6.02765 4.42925 6.17926C4.27764 6.33088 4.19109 6.53562 4.18799 6.75001L4.12599 13.094C4.12507 13.2536 4.17033 13.41 4.25631 13.5444C4.34229 13.6788 4.46532 13.7855 4.61056 13.8515C4.75579 13.9176 4.91704 13.9402 5.07486 13.9167C5.23268 13.8932 5.38032 13.8245 5.49999 13.719L12.5 7.34401C12.6237 7.23148 12.7103 7.08406 12.7484 6.92124C12.7866 6.75842 12.7743 6.58787 12.7134 6.43213C12.6525 6.27639 12.5458 6.14281 12.4073 6.04905C12.2689 5.95528 12.1052 5.90575 11.938 5.90701Z" fill="white" fill-opacity="0.32"/>
<path d="M11.938 6.15696L4.99998 6.18796C4.92584 6.18675 4.85221 6.20045 4.78348 6.22827C4.71474 6.25608 4.6523 6.29743 4.59987 6.34986C4.54744 6.40229 4.50609 6.46473 4.47828 6.53347C4.45046 6.6022 4.43676 6.67583 4.43798 6.74996L4.37598 13.094C4.37437 13.2032 4.40515 13.3104 4.46443 13.4022C4.5237 13.4939 4.60883 13.5661 4.70905 13.6095C4.80928 13.6529 4.92013 13.6657 5.02761 13.6462C5.13509 13.6267 5.23438 13.5758 5.31298 13.5L12.313 7.12496C12.3974 7.04993 12.4568 6.9509 12.4834 6.84113C12.5099 6.73136 12.5023 6.6161 12.4615 6.5108C12.4207 6.40549 12.3487 6.31517 12.2551 6.25193C12.1616 6.18869 12.0509 6.15555 11.938 6.15696Z" fill="white" fill-opacity="0.32"/>
<path d="M11.938 6.43799L4.99998 6.46899C4.96695 6.47321 4.93504 6.48373 4.90598 6.49999C4.87052 6.51406 4.83847 6.53554 4.81198 6.56299C4.80067 6.5723 4.79029 6.58268 4.78098 6.59399C4.7609 6.63261 4.75028 6.67545 4.74998 6.71899C4.73867 6.7283 4.72829 6.73868 4.71898 6.74999L4.65698 13.094C4.66426 13.116 4.6747 13.1369 4.68798 13.156C4.6922 13.189 4.70273 13.2209 4.71898 13.25C4.73626 13.2738 4.75719 13.2947 4.78098 13.312C4.81004 13.3282 4.84195 13.3388 4.87498 13.343C4.92576 13.359 4.98021 13.359 5.03098 13.343C5.06633 13.3292 5.09835 13.308 5.12498 13.281L12.125 6.90599C12.151 6.87642 12.1701 6.84141 12.1808 6.80351C12.1915 6.76562 12.1936 6.7258 12.187 6.68699C12.1867 6.64345 12.1761 6.60061 12.156 6.56199C12.1467 6.55068 12.1363 6.5403 12.125 6.53099C12.0985 6.50373 12.0665 6.48257 12.031 6.46899C12.0022 6.4529 11.9707 6.44238 11.938 6.43799Z" fill="black" fill-opacity="0.33"/>
<path d="M4.95001 13.098L4.98701 6.76501L11.933 6.73401L4.95001 13.098Z" fill="url(#paint8_linear_33_35)"/>
<path d="M10.969 11.313C10.853 11.325 10.748 11.387 10.681 11.483C10.614 11.579 10.594 11.7 10.625 11.813L11.313 14.219L16.063 35.344L15.625 37.656C15.6148 37.7119 15.6167 37.7694 15.6306 37.8245C15.6445 37.8796 15.6701 37.9311 15.7057 37.9755C15.7413 38.0199 15.7859 38.0561 15.8367 38.0817C15.8875 38.1073 15.9431 38.1217 16 38.124H22.906C22.966 38.1221 23.0248 38.1068 23.0781 38.0791C23.1313 38.0515 23.1777 38.0122 23.2137 37.9642C23.2497 37.9161 23.2745 37.8606 23.2861 37.8017C23.2978 37.7428 23.296 37.6821 23.281 37.624L22.843 35.405L24.031 30.874L25.5 35.469L24.844 37.594C24.8227 37.654 24.8161 37.7183 24.8248 37.7814C24.8335 37.8444 24.8572 37.9045 24.894 37.9566C24.9307 38.0086 24.9794 38.051 25.036 38.0803C25.0925 38.1096 25.1553 38.1249 25.219 38.125L33 38.157C33.0637 38.1572 33.1266 38.142 33.1833 38.1128C33.24 38.0835 33.2888 38.0411 33.3255 37.989C33.3623 37.9369 33.386 37.8767 33.3946 37.8135C33.4032 37.7503 33.3965 37.686 33.375 37.626L32.469 35.188L36.031 14.719L37.375 11.875C37.402 11.8158 37.4141 11.7509 37.4103 11.686C37.4064 11.621 37.3867 11.558 37.3529 11.5024C37.319 11.4469 37.2721 11.4005 37.2161 11.3673C37.1602 11.3341 37.0969 11.3151 37.032 11.312H30.25C30.1905 11.3098 30.1313 11.321 30.0767 11.3448C30.0221 11.3685 29.9736 11.4042 29.9346 11.4492C29.8957 11.4942 29.8673 11.5474 29.8516 11.6048C29.8359 11.6622 29.8333 11.7224 29.844 11.781L30.25 14.093L27.906 27.312L24.25 13.188C24.2224 13.1105 24.1716 13.0435 24.1045 12.9961C24.0373 12.9487 23.9571 12.9233 23.875 12.9233C23.7928 12.9233 23.7126 12.9487 23.6455 12.9961C23.5783 13.0435 23.5275 13.1105 23.5 13.188L19.969 27.219L17.031 14.094L17.406 11.782C17.4142 11.7188 17.4071 11.6546 17.3854 11.5947C17.3636 11.5349 17.3278 11.4811 17.281 11.438C17.2449 11.3994 17.2014 11.3684 17.1532 11.3469C17.1049 11.3254 17.0528 11.3139 17 11.313H11C10.9897 11.312 10.9793 11.312 10.969 11.313Z" fill="#7E7F83"/>
<path d="M10.844 11C10.7484 11.0224 10.6583 11.0641 10.5793 11.1224C10.5003 11.1807 10.434 11.2544 10.3843 11.3392C10.3346 11.4239 10.3027 11.5178 10.2905 11.6153C10.2782 11.7127 10.2859 11.8116 10.313 11.906L11 14.281H10.969L15.719 35.343L15.281 37.593C15.2644 37.697 15.2705 37.8035 15.299 37.9049C15.3274 38.0064 15.3776 38.1005 15.4459 38.1807C15.5143 38.2609 15.5992 38.3254 15.6948 38.3696C15.7905 38.4139 15.8946 38.4368 16 38.437H22.906C23.0144 38.4375 23.1217 38.4139 23.2198 38.3677C23.318 38.3216 23.4047 38.2542 23.4735 38.1704C23.5424 38.0866 23.5917 37.9885 23.6179 37.8833C23.6441 37.778 23.6465 37.6683 23.625 37.562L23.187 35.437L24.062 32.093L25.156 35.468L24.531 37.499C24.466 37.718 24.508 37.954 24.642 38.139C24.776 38.324 24.99 38.433 25.218 38.437L33 38.469C33.1162 38.4687 33.2307 38.4407 33.334 38.3872C33.4372 38.3337 33.5261 38.2564 33.5934 38.1616C33.6607 38.0668 33.7044 37.9573 33.7209 37.8422C33.7373 37.7272 33.726 37.6098 33.688 37.5L32.813 35.125L36.344 14.875L37.688 12.031C37.7377 11.9205 37.7592 11.7993 37.7505 11.6784C37.7418 11.5576 37.7032 11.4407 37.6382 11.3385C37.5731 11.2362 37.4836 11.1518 37.3778 11.0927C37.272 11.0336 37.1532 11.0017 37.032 11H30.25C30.1447 11.0001 30.0407 11.0231 29.9451 11.0673C29.8495 11.1114 29.7647 11.1758 29.6964 11.2559C29.628 11.336 29.5779 11.43 29.5493 11.5313C29.5208 11.6327 29.5145 11.739 29.531 11.843L29.906 14.093L27.875 25.719L24.594 13.094C24.5643 12.9248 24.4759 12.7716 24.3444 12.6612C24.2129 12.5508 24.0467 12.4902 23.875 12.4902C23.7033 12.4902 23.5371 12.5508 23.4055 12.6612C23.274 12.7716 23.1857 12.9248 23.156 13.094L19.969 25.719L17.375 14L17.719 11.844C17.7358 11.7399 17.7298 11.6335 17.7014 11.532C17.673 11.4305 17.6228 11.3364 17.5544 11.2562C17.486 11.176 17.401 11.1117 17.3053 11.0676C17.2096 11.0235 17.1054 11.0008 17 11.001H11C10.9482 10.9951 10.8959 10.9948 10.844 11Z" fill="#7E7F83"/>
<path d="M10.781 10.688C10.6405 10.7175 10.5076 10.7759 10.3908 10.8594C10.274 10.9429 10.1758 11.0498 10.1024 11.1732C10.029 11.2966 9.98203 11.4338 9.9644 11.5763C9.94677 11.7188 9.95889 11.8634 10 12.001L10.688 14.345V14.407L15.407 35.282L14.969 37.532C14.916 37.836 15 38.147 15.199 38.384C15.398 38.618 15.692 38.753 16 38.751H22.906C23.0614 38.7529 23.2153 38.7199 23.3563 38.6544C23.4973 38.589 23.6218 38.4927 23.7207 38.3728C23.8197 38.2529 23.8904 38.1123 23.9278 37.9615C23.9653 37.8106 23.9684 37.6532 23.937 37.501L23.5 35.375L24.094 33.187L24.813 35.468L24.219 37.406C24.1713 37.5619 24.161 37.7269 24.1888 37.8875C24.2167 38.0482 24.2819 38.2 24.3792 38.3308C24.4765 38.4616 24.6032 38.5677 24.7491 38.6406C24.895 38.7134 25.056 38.7509 25.219 38.75L33 38.781C33.164 38.7786 33.3251 38.7373 33.4702 38.6607C33.6152 38.5841 33.7401 38.4743 33.8346 38.3402C33.9291 38.2061 33.9905 38.0516 34.0139 37.8892C34.0372 37.7269 34.0219 37.5613 33.969 37.406L33.125 35.125L36.656 14.937L37.968 12.156C38.0396 11.9984 38.0708 11.8254 38.0586 11.6528C38.0464 11.4801 37.9912 11.3132 37.8981 11.1672C37.8051 11.0213 37.677 10.9009 37.5255 10.817C37.3741 10.7332 37.2041 10.6885 37.031 10.687H30.25C30.0976 10.6855 29.9467 10.7177 29.8081 10.7811C29.6695 10.8446 29.5466 10.9379 29.4481 11.0543C29.3497 11.1707 29.2781 11.3074 29.2385 11.4546C29.1989 11.6018 29.1922 11.7559 29.219 11.906L29.594 14.094L27.782 24.282L24.876 13.032C24.8146 12.8141 24.6836 12.6222 24.5031 12.4856C24.3226 12.349 24.1024 12.275 23.876 12.275C23.6496 12.275 23.4294 12.349 23.2489 12.4856C23.0684 12.6222 22.9374 12.8141 22.876 13.032L20 24.469L17.688 14.063L18.032 11.875C18.0538 11.7272 18.0433 11.5764 18.0014 11.433C17.9594 11.2896 17.8869 11.157 17.7889 11.0442C17.6909 10.9315 17.5696 10.8413 17.4334 10.7798C17.2973 10.7183 17.1494 10.687 17 10.688H11C10.9272 10.68 10.8538 10.68 10.781 10.688Z" fill="#7E7F83"/>
<path d="M10.844 10.313C10.6397 10.334 10.4424 10.3992 10.2658 10.5042C10.0892 10.6092 9.93769 10.7514 9.82167 10.9209C9.70565 11.0904 9.62795 11.2832 9.59399 11.4858C9.56002 11.6883 9.5706 11.8959 9.62499 12.094L10.313 14.438V14.5L15.032 35.344L14.626 37.438C14.5857 37.6419 14.5909 37.8522 14.6411 38.0538C14.6914 38.2555 14.7856 38.4436 14.9169 38.6047C15.0482 38.7659 15.2134 38.896 15.4008 38.9859C15.5882 39.0759 15.7931 39.1233 16.001 39.125H22.907C23.366 39.127 23.797 38.904 24.063 38.531C24.329 38.904 24.76 39.127 25.219 39.125L33 39.157C33.461 39.153 33.891 38.925 34.151 38.545C34.411 38.165 34.472 37.683 34.312 37.251L33.531 35.095L37 15.095L38.312 12.345C38.525 11.905 38.496 11.387 38.236 10.973C38.1075 10.7699 37.9295 10.6027 37.7188 10.4873C37.508 10.3718 37.2713 10.3119 37.031 10.313H30.25C30.0427 10.3111 29.8376 10.3548 29.6491 10.441C29.4606 10.5272 29.2934 10.6538 29.1592 10.8118C29.0251 10.9698 28.9273 11.1553 28.8728 11.3553C28.8184 11.5553 28.8085 11.7648 28.844 11.969L29.219 14.094L27.719 22.5L25.25 12.938C25.1767 12.6284 25.0011 12.3526 24.7515 12.1552C24.502 11.9578 24.1931 11.8505 23.875 11.8505C23.5568 11.8505 23.248 11.9578 22.9985 12.1552C22.7489 12.3526 22.5733 12.6284 22.5 12.938L20.031 22.782L18.062 14.032L18.406 11.938C18.4366 11.7361 18.4231 11.5299 18.3664 11.3337C18.3097 11.1375 18.2112 10.9559 18.0775 10.8014C17.9439 10.647 17.7784 10.5233 17.5923 10.439C17.4063 10.3547 17.2042 10.3117 17 10.313H11C10.948 10.31 10.8959 10.31 10.844 10.313ZM24.125 34.563L24.437 35.501L24.093 36.563L23.874 35.501L24.125 34.563Z" fill="#7E7F83"/>
<path d="M10.992 11.719L11.703 14.117L16.469 35.32L16 37.727H22.914L22.437 35.407L24.007 29.454L25.898 35.485L25.226 37.727L33.015 37.743L32.058 35.2L35.638 14.668L37.03 11.715L30.25 11.719L30.643 14.105L27.997 29.188L23.876 13.282L19.938 28.907L16.626 14.032L17 11.719H10.992Z" fill="#7E7F83"/>
<path d="M11 11.719L14.379 14.215L18.902 35.25L15.996 37.727L16.469 35.313L11.719 14.125L11 11.719Z" fill="url(#paint9_linear_33_35)"/>
<path d="M18.906 35.25L15.996 37.727L22.922 37.719L20.25 35.266L18.906 35.25Z" fill="#792100"/>
<path d="M16.984 11.742L14.382 14.222L18.905 35.249L20.237 35.261L19.969 28.719L16.75 14.125L16.984 11.742Z" fill="url(#paint10_linear_33_35)"/>
<path d="M22.918 37.727L20.254 35.27L23.992 20.907L24.008 29.446L22.438 35.407L22.918 37.727Z" fill="url(#paint11_linear_33_35)"/>
<path d="M23.875 13.25L24 20.844L20.246 35.278L20 28.781L23.875 13.25Z" fill="url(#paint12_linear_33_35)"/>
<path d="M10.992 11.719L14.383 14.219L17 11.727L10.992 11.719Z" fill="url(#paint13_linear_33_35)"/>
<path d="M23.867 13.266L23.992 20.899L27.433 35.28L29.579 35.291L23.867 13.266Z" fill="url(#paint14_linear_33_35)"/>
<path d="M23.992 20.907L24.008 29.43L25.904 35.481L25.232 37.717L27.453 35.289L23.992 20.907Z" fill="url(#paint15_linear_33_35)"/>
<path d="M29.57 35.278L27.461 35.286L25.217 37.727L33.01 37.741L29.57 35.278Z" fill="#792100"/>
<path d="M35.631 14.635L37.024 11.736L33.272 13.858L29.555 35.284L33.018 37.748L32.059 35.202L35.631 14.635Z" fill="url(#paint16_linear_33_35)"/>
<path d="M30.643 14.094L30.239 11.742L33.276 13.844L29.555 35.262L27.994 29.184L30.643 14.094Z" fill="url(#paint17_linear_33_35)"/>
<path d="M30.235 11.735L33.257 13.867L37.04 11.722L30.235 11.735Z" fill="url(#paint18_linear_33_35)"/>
<path d="M24 1.65698C11.407 1.65698 1.18799 11.89 1.18799 24.501C1.18799 37.112 11.407 47.344 24 47.344C36.594 47.344 46.812 37.111 46.812 24.5C46.812 11.889 36.594 1.65698 24 1.65698ZM23.906 5.59398C34.235 5.59398 42.594 13.973 42.594 24.344C42.594 34.715 34.235 43.125 23.906 43.125C13.577 43.125 5.18699 34.715 5.18699 24.344C5.18799 13.973 13.577 5.59398 23.906 5.59398Z" fill="black" fill-opacity="0.26"/>
<path d="M24 1.31299C11.219 1.31299 0.843994 11.703 0.843994 24.501C0.843994 37.298 11.219 47.689 24 47.689C36.781 47.689 47.156 37.298 47.156 24.501C47.156 11.703 36.781 1.31299 24 1.31299ZM23.906 5.93799C34.047 5.93799 42.25 14.16 42.25 24.344C42.25 34.528 34.047 42.782 23.906 42.782C13.766 42.782 5.53099 34.528 5.53099 24.344C5.53099 14.161 13.765 5.93799 23.906 5.93799Z" fill="black" fill-opacity="0.28"/>
<path d="M24 0.75C10.915 0.75 0.281006 11.399 0.281006 24.5C0.281006 37.601 10.915 48.25 24 48.25C37.086 48.25 47.719 37.601 47.719 24.5C47.719 11.399 37.086 0.75 24 0.75ZM23.906 6.5C33.743 6.5 41.687 14.462 41.687 24.344C41.687 34.226 33.74 42.219 23.906 42.219C14.072 42.219 6.09401 34.223 6.09401 24.344C6.09401 14.465 14.069 6.5 23.906 6.5Z" fill="black" fill-opacity="0.41"/>
<path d="M24 2C11.59 2 1.53101 12.073 1.53101 24.5C1.53101 36.928 11.59 47 24 47C36.41 47 46.469 36.928 46.469 24.5C46.469 12.073 36.41 2 24 2ZM23.906 5.25C34.419 5.25 42.937 13.791 42.937 24.344C42.937 34.897 34.418 43.469 23.906 43.469C13.394 43.469 4.84401 34.897 4.84401 24.344C4.84401 13.791 13.394 5.25 23.906 5.25Z" fill="url(#paint19_linear_33_35)"/>
<path d="M23.433 2.14697C11.651 2.14697 2.12097 11.69 2.12097 23.491C2.12097 35.292 11.652 44.835 23.433 44.835C35.214 44.835 44.746 35.292 44.746 23.491C44.746 11.69 35.215 2.14697 23.433 2.14697ZM23.339 3.08397C34.48 3.08397 43.527 12.156 43.527 23.334C43.527 34.512 34.483 43.615 23.339 43.615C12.195 43.615 3.12097 34.515 3.12097 23.334C3.12097 12.153 12.198 3.08397 23.339 3.08397Z" fill="url(#paint20_linear_33_35)"/>
</g>
<defs>
<linearGradient id="paint0_linear_33_35" x1="11.95" y1="0.0989864" x2="33.35" y2="41.649" gradientUnits="userSpaceOnUse">
<stop stop-color="#5B779E"/>
<stop offset="0.399" stop-color="#2D3B50"/>
<stop offset="1" stop-color="#0C0E14"/>
</linearGradient>
<linearGradient id="paint1_linear_33_35" x1="19.75" y1="9.17899" x2="26.25" y2="23.379" gradientUnits="userSpaceOnUse">
<stop stop-opacity="0"/>
<stop offset="1" stop-opacity="0.62"/>
</linearGradient>
<radialGradient id="paint2_radial_33_35" cx="0" cy="0" r="1" gradientUnits="userSpaceOnUse" gradientTransform="translate(16.624 8.30826) rotate(-11.4923) scale(28.6583 14.9066)">
<stop stop-color="#BDD9F9"/>
<stop offset="0.065" stop-color="#BDD9F9"/>
<stop offset="1" stop-color="#1C3556" stop-opacity="0.1"/>
</radialGradient>
<linearGradient id="paint3_linear_33_35" x1="2.65" y1="7.69899" x2="13.95" y2="31.949" gradientUnits="userSpaceOnUse">
<stop stop-opacity="0"/>
<stop offset="1" stop-opacity="0.62"/>
</linearGradient>
<radialGradient id="paint4_radial_33_35" cx="0" cy="0" r="1" gradientUnits="userSpaceOnUse" gradientTransform="translate(11.6094 14.253) rotate(-11.4923) scale(28.6583 14.9066)">
<stop stop-color="#BDD9F9"/>
<stop offset="0.065" stop-color="#BDD9F9"/>
<stop offset="1" stop-color="#1C3556" stop-opacity="0.1"/>
</radialGradient>
<linearGradient id="paint5_linear_33_35" x1="38" y1="5.53" x2="44.3" y2="11.1" gradientUnits="userSpaceOnUse">
<stop stop-color="#FDEC97"/>
<stop offset="0.353" stop-color="#FDEC97"/>
<stop offset="0.513" stop-color="#FDEC97"/>
<stop offset="0.628" stop-color="#DB990F"/>
<stop offset="1" stop-color="#DB990F"/>
</linearGradient>
<linearGradient id="paint6_linear_33_35" x1="38.5" y1="43.79" x2="45.1" y2="37.04" gradientUnits="userSpaceOnUse">
<stop stop-color="#FFDC76"/>
<stop offset="0.327" stop-color="#E4903B"/>
<stop offset="0.451" stop-color="#CA4400"/>
<stop offset="0.58" stop-color="#FDEC97"/>
<stop offset="0.704" stop-color="#DB990F"/>
<stop offset="1" stop-color="#DB990F"/>
</linearGradient>
<linearGradient id="paint7_linear_33_35" x1="8" y1="42.58" x2="3.6" y2="37.72" gradientUnits="userSpaceOnUse">
<stop stop-color="#FFDC76"/>
<stop offset="0.327" stop-color="#E4903B"/>
<stop offset="0.451" stop-color="#CA4400"/>
<stop offset="0.58" stop-color="#FDEC97"/>
<stop offset="0.704" stop-color="#DB990F"/>
<stop offset="1" stop-color="#DB990F"/>
</linearGradient>
<linearGradient id="paint8_linear_33_35" x1="3.70001" y1="11.49" x2="9.70001" y2="5.56001" gradientUnits="userSpaceOnUse">
<stop stop-color="#CA4400"/>
<stop offset="0.353" stop-color="#CA4400"/>
<stop offset="0.513" stop-color="#FDEC97"/>
<stop offset="0.628" stop-color="#DB990F"/>
<stop offset="1" stop-color="#DB990F"/>
</linearGradient>
<linearGradient id="paint9_linear_33_35" x1="12" y1="11.87" x2="17.5" y2="36.12" gradientUnits="userSpaceOnUse">
<stop stop-color="#DA940F"/>
<stop offset="0.235" stop-color="#EFD11A"/>
<stop offset="0.75" stop-color="#EFD11A"/>
<stop offset="0.908" stop-color="#EFD11A"/>
<stop offset="1" stop-color="#D3900E"/>
</linearGradient>
<linearGradient id="paint10_linear_33_35" x1="15.4" y1="11.8" x2="20.2" y2="34.66" gradientUnits="userSpaceOnUse">
<stop stop-color="#C63000"/>
<stop offset="0.491" stop-color="#DB9000"/>
<stop offset="0.8" stop-color="#DB9000"/>
<stop offset="1" stop-color="#C43B00"/>
</linearGradient>
<linearGradient id="paint11_linear_33_35" x1="24.9" y1="22.61" x2="21.4" y2="37.3" gradientUnits="userSpaceOnUse">
<stop stop-color="#AD2F00"/>
<stop offset="1" stop-color="#CB7500"/>
</linearGradient>
<linearGradient id="paint12_linear_33_35" x1="24.9" y1="15.63" x2="19.8" y2="31.1" gradientUnits="userSpaceOnUse">
<stop stop-color="#ECD500"/>
<stop offset="0.869" stop-color="#ECD500"/>
<stop offset="1" stop-color="#FFEF57"/>
</linearGradient>
<linearGradient id="paint13_linear_33_35" x1="13.9" y1="11.6" x2="15.2" y2="14.26" gradientUnits="userSpaceOnUse">
<stop stop-color="#FFD511"/>
<stop offset="1" stop-color="#FDF8DC"/>
</linearGradient>
<linearGradient id="paint14_linear_33_35" x1="23" y1="15.17" x2="28.8" y2="35.29" gradientUnits="userSpaceOnUse">
<stop stop-color="#BD3300"/>
<stop offset="0.188" stop-color="#BD3300"/>
<stop offset="0.411" stop-color="#CB8500"/>
<stop offset="1" stop-color="#C26F00"/>
</linearGradient>
<linearGradient id="paint15_linear_33_35" x1="22.8" y1="22.97" x2="26.7" y2="36.35" gradientUnits="userSpaceOnUse">
<stop stop-color="#FFD303"/>
<stop offset="0.902" stop-color="#FFD303"/>
<stop offset="1" stop-color="#D27E00"/>
</linearGradient>
<linearGradient id="paint16_linear_33_35" x1="35.5" y1="11.25" x2="31.1" y2="37.58" gradientUnits="userSpaceOnUse">
<stop stop-color="#A51F00"/>
<stop offset="0.288" stop-color="#C67200"/>
<stop offset="0.644" stop-color="#C67200"/>
<stop offset="1" stop-color="#C25500"/>
</linearGradient>
<linearGradient id="paint17_linear_33_35" x1="32.1" y1="11.82" x2="27.7" y2="35.09" gradientUnits="userSpaceOnUse">
<stop stop-color="#CD7C00"/>
<stop offset="0.314" stop-color="#EED700"/>
<stop offset="1" stop-color="#EED700"/>
</linearGradient>
<linearGradient id="paint18_linear_33_35" x1="33.6" y1="11.6" x2="34.7" y2="13.88" gradientUnits="userSpaceOnUse">
<stop stop-color="#FFD511"/>
<stop offset="1" stop-color="#FDF8DC"/>
</linearGradient>
<linearGradient id="paint19_linear_33_35" x1="-1.09999" y1="34.94" x2="50.7" y2="13.4" gradientUnits="userSpaceOnUse">
<stop stop-color="#51290E"/>
<stop offset="0.346" stop-color="#D08E29"/>
<stop offset="0.417" stop-color="#E1D02D"/>
<stop offset="0.498" stop-color="#F6E57F"/>
<stop offset="0.537" stop-color="#F6E57F"/>
<stop offset="0.605" stop-color="#E1D02D"/>
<stop offset="0.687" stop-color="#D08E29"/>
<stop offset="1" stop-color="#452A15"/>
</linearGradient>
<linearGradient id="paint20_linear_33_35" x1="36.4" y1="41.91" x2="9.59997" y2="3.99997" gradientUnits="userSpaceOnUse">
<stop stop-color="#FFE12B"/>
<stop offset="0.136" stop-color="#FFF7C7" stop-opacity="0"/>
<stop offset="0.819" stop-color="#FFF7C7" stop-opacity="0"/>
<stop offset="1" stop-color="#FFE12B"/>
</linearGradient>
<clipPath id="clip0_33_35">
<rect width="48" height="48" fill="white" transform="translate(0 0.5)"/>
</clipPath>
</defs>
</svg>
